<mxfile host="app.diagrams.net" modified="2022-12-14T23:32:38.588Z" agent="5.0 (Windows NT 10.0; Win64; x64) AppleWebKit/537.36 (KHTML, like Gecko) Chrome/108.0.0.0 Safari/537.36" etag="KmcZLsH-6HZU_bxaNSsW" version="20.7.2" type="github">
  <diagram id="C5RBs43oDa-KdzZeNtuy" name="Page-1">
    <mxGraphModel dx="1728" dy="930" grid="1" gridSize="10" guides="1" tooltips="1" connect="1" arrows="1" fold="1" page="1" pageScale="1" pageWidth="827" pageHeight="1169" math="0" shadow="0">
      <root>
        <mxCell id="WIyWlLk6GJQsqaUBKTNV-0" />
        <mxCell id="WIyWlLk6GJQsqaUBKTNV-1" parent="WIyWlLk6GJQsqaUBKTNV-0" />
        <mxCell id="jqhF-G6rzCCXoXhEArTD-44" value="&lt;b&gt;Рябцев А.А.&lt;/b&gt;" style="text;html=1;align=left;verticalAlign=middle;resizable=0;points=[];autosize=1;strokeColor=none;fillColor=none;" vertex="1" parent="WIyWlLk6GJQsqaUBKTNV-1">
          <mxGeometry x="30" y="20" width="90" height="30" as="geometry" />
        </mxCell>
        <mxCell id="jqhF-G6rzCCXoXhEArTD-54" value="" style="edgeStyle=orthogonalEdgeStyle;rounded=0;orthogonalLoop=1;jettySize=auto;html=1;" edge="1" parent="WIyWlLk6GJQsqaUBKTNV-1" source="jqhF-G6rzCCXoXhEArTD-55" target="jqhF-G6rzCCXoXhEArTD-58">
          <mxGeometry relative="1" as="geometry" />
        </mxCell>
        <mxCell id="jqhF-G6rzCCXoXhEArTD-55" value="&lt;b&gt;Start&lt;/b&gt;" style="rounded=1;whiteSpace=wrap;html=1;fontSize=12;glass=0;strokeWidth=1;shadow=0;" vertex="1" parent="WIyWlLk6GJQsqaUBKTNV-1">
          <mxGeometry x="210" y="120" width="120" height="40" as="geometry" />
        </mxCell>
        <mxCell id="jqhF-G6rzCCXoXhEArTD-56" value="&lt;b&gt;print(count_maximal)&lt;/b&gt;" style="rounded=1;whiteSpace=wrap;html=1;fontSize=12;glass=0;strokeWidth=1;shadow=0;" vertex="1" parent="WIyWlLk6GJQsqaUBKTNV-1">
          <mxGeometry x="436" y="360" width="164" height="40" as="geometry" />
        </mxCell>
        <mxCell id="jqhF-G6rzCCXoXhEArTD-90" value="" style="edgeStyle=orthogonalEdgeStyle;rounded=0;orthogonalLoop=1;jettySize=auto;html=1;" edge="1" parent="WIyWlLk6GJQsqaUBKTNV-1" source="jqhF-G6rzCCXoXhEArTD-58" target="jqhF-G6rzCCXoXhEArTD-88">
          <mxGeometry relative="1" as="geometry" />
        </mxCell>
        <mxCell id="jqhF-G6rzCCXoXhEArTD-58" value="&lt;div style=&quot;text-align: justify;&quot;&gt;&lt;span style=&quot;background-color: initial;&quot;&gt;numbers = [1, 8, 3, 8, 2, 6, 8, 8]&lt;/span&gt;&lt;/div&gt;&lt;div style=&quot;text-align: justify;&quot;&gt;&lt;span style=&quot;background-color: initial;&quot;&gt;index = 0&lt;/span&gt;&lt;/div&gt;&lt;div style=&quot;text-align: justify;&quot;&gt;&lt;span style=&quot;background-color: initial;&quot;&gt;maximum = numbers[index]&lt;/span&gt;&lt;/div&gt;&lt;div style=&quot;text-align: justify;&quot;&gt;&lt;span style=&quot;background-color: initial;&quot;&gt;count_maximal = 0&lt;/span&gt;&lt;/div&gt;" style="shape=parallelogram;perimeter=parallelogramPerimeter;whiteSpace=wrap;html=1;fixedSize=1;" vertex="1" parent="WIyWlLk6GJQsqaUBKTNV-1">
          <mxGeometry x="159.5" y="200" width="221" height="100" as="geometry" />
        </mxCell>
        <mxCell id="jqhF-G6rzCCXoXhEArTD-59" value="&lt;b&gt;Введение в программирование. Семинар 3. Домашнее задание. Задача 5:&lt;br&gt;&lt;/b&gt;&lt;div&gt;Составьте блок-схему на основе псевдокода&lt;br&gt;&lt;/div&gt;" style="text;html=1;align=left;verticalAlign=middle;resizable=0;points=[];autosize=1;strokeColor=none;fillColor=none;" vertex="1" parent="WIyWlLk6GJQsqaUBKTNV-1">
          <mxGeometry x="183" y="50" width="460" height="40" as="geometry" />
        </mxCell>
        <mxCell id="jqhF-G6rzCCXoXhEArTD-63" value="&lt;b&gt;&lt;u&gt;&lt;font color=&quot;#00cc00&quot;&gt;Да&lt;/font&gt;&lt;/u&gt;&lt;/b&gt;" style="text;html=1;align=center;verticalAlign=middle;resizable=0;points=[];autosize=1;strokeColor=none;fillColor=none;" vertex="1" parent="WIyWlLk6GJQsqaUBKTNV-1">
          <mxGeometry x="270" y="427.5" width="40" height="30" as="geometry" />
        </mxCell>
        <mxCell id="jqhF-G6rzCCXoXhEArTD-64" value="&lt;b&gt;&lt;u&gt;&lt;font color=&quot;#cc0000&quot;&gt;Нет&lt;/font&gt;&lt;/u&gt;&lt;/b&gt;" style="text;html=1;align=center;verticalAlign=middle;resizable=0;points=[];autosize=1;strokeColor=none;fillColor=none;" vertex="1" parent="WIyWlLk6GJQsqaUBKTNV-1">
          <mxGeometry x="376" y="350" width="40" height="30" as="geometry" />
        </mxCell>
        <mxCell id="jqhF-G6rzCCXoXhEArTD-67" style="edgeStyle=orthogonalEdgeStyle;rounded=0;orthogonalLoop=1;jettySize=auto;html=1;entryX=0;entryY=0.5;entryDx=0;entryDy=0;exitX=0;exitY=0.5;exitDx=0;exitDy=0;" edge="1" parent="WIyWlLk6GJQsqaUBKTNV-1" source="jqhF-G6rzCCXoXhEArTD-81" target="jqhF-G6rzCCXoXhEArTD-88">
          <mxGeometry relative="1" as="geometry">
            <Array as="points">
              <mxPoint x="96" y="750" />
              <mxPoint x="96" y="380" />
            </Array>
            <mxPoint x="183" y="380" as="targetPoint" />
          </mxGeometry>
        </mxCell>
        <mxCell id="jqhF-G6rzCCXoXhEArTD-77" value="&lt;b&gt;&lt;u&gt;&lt;font color=&quot;#cc0000&quot;&gt;Нет&lt;/font&gt;&lt;/u&gt;&lt;/b&gt;" style="text;html=1;align=center;verticalAlign=middle;resizable=0;points=[];autosize=1;strokeColor=none;fillColor=none;" vertex="1" parent="WIyWlLk6GJQsqaUBKTNV-1">
          <mxGeometry x="270" y="555" width="40" height="30" as="geometry" />
        </mxCell>
        <mxCell id="jqhF-G6rzCCXoXhEArTD-86" style="edgeStyle=orthogonalEdgeStyle;rounded=0;orthogonalLoop=1;jettySize=auto;html=1;entryX=0.5;entryY=1;entryDx=0;entryDy=0;exitX=1;exitY=0.5;exitDx=0;exitDy=0;" edge="1" parent="WIyWlLk6GJQsqaUBKTNV-1" source="jqhF-G6rzCCXoXhEArTD-101" target="jqhF-G6rzCCXoXhEArTD-81">
          <mxGeometry relative="1" as="geometry">
            <mxPoint x="682" y="480" as="sourcePoint" />
            <Array as="points">
              <mxPoint x="732" y="508" />
              <mxPoint x="732" y="820" />
              <mxPoint x="270" y="820" />
            </Array>
          </mxGeometry>
        </mxCell>
        <mxCell id="jqhF-G6rzCCXoXhEArTD-81" value="index = index + 1" style="rounded=0;whiteSpace=wrap;html=1;" vertex="1" parent="WIyWlLk6GJQsqaUBKTNV-1">
          <mxGeometry x="210" y="720" width="120" height="60" as="geometry" />
        </mxCell>
        <mxCell id="jqhF-G6rzCCXoXhEArTD-85" style="edgeStyle=orthogonalEdgeStyle;rounded=0;orthogonalLoop=1;jettySize=auto;html=1;entryX=1;entryY=0.5;entryDx=0;entryDy=0;exitX=0.5;exitY=1;exitDx=0;exitDy=0;" edge="1" parent="WIyWlLk6GJQsqaUBKTNV-1" source="jqhF-G6rzCCXoXhEArTD-99" target="jqhF-G6rzCCXoXhEArTD-81">
          <mxGeometry relative="1" as="geometry">
            <mxPoint x="542" y="710" as="sourcePoint" />
            <Array as="points">
              <mxPoint x="529" y="750" />
            </Array>
          </mxGeometry>
        </mxCell>
        <mxCell id="jqhF-G6rzCCXoXhEArTD-94" value="" style="edgeStyle=orthogonalEdgeStyle;rounded=0;orthogonalLoop=1;jettySize=auto;html=1;" edge="1" parent="WIyWlLk6GJQsqaUBKTNV-1" source="jqhF-G6rzCCXoXhEArTD-87" target="jqhF-G6rzCCXoXhEArTD-89">
          <mxGeometry relative="1" as="geometry" />
        </mxCell>
        <mxCell id="jqhF-G6rzCCXoXhEArTD-102" value="" style="edgeStyle=orthogonalEdgeStyle;rounded=0;orthogonalLoop=1;jettySize=auto;html=1;" edge="1" parent="WIyWlLk6GJQsqaUBKTNV-1" source="jqhF-G6rzCCXoXhEArTD-87" target="jqhF-G6rzCCXoXhEArTD-101">
          <mxGeometry relative="1" as="geometry" />
        </mxCell>
        <mxCell id="jqhF-G6rzCCXoXhEArTD-87" value="numbers[index] &lt;b&gt;&amp;gt;&lt;/b&gt; maximum" style="rhombus;whiteSpace=wrap;html=1;" vertex="1" parent="WIyWlLk6GJQsqaUBKTNV-1">
          <mxGeometry x="168" y="460" width="204" height="95" as="geometry" />
        </mxCell>
        <mxCell id="jqhF-G6rzCCXoXhEArTD-91" value="" style="edgeStyle=orthogonalEdgeStyle;rounded=0;orthogonalLoop=1;jettySize=auto;html=1;" edge="1" parent="WIyWlLk6GJQsqaUBKTNV-1" source="jqhF-G6rzCCXoXhEArTD-88" target="jqhF-G6rzCCXoXhEArTD-56">
          <mxGeometry relative="1" as="geometry" />
        </mxCell>
        <mxCell id="jqhF-G6rzCCXoXhEArTD-93" value="" style="edgeStyle=orthogonalEdgeStyle;rounded=0;orthogonalLoop=1;jettySize=auto;html=1;" edge="1" parent="WIyWlLk6GJQsqaUBKTNV-1" source="jqhF-G6rzCCXoXhEArTD-88" target="jqhF-G6rzCCXoXhEArTD-87">
          <mxGeometry relative="1" as="geometry" />
        </mxCell>
        <mxCell id="jqhF-G6rzCCXoXhEArTD-88" value="index &lt;b&gt;&amp;lt;&lt;/b&gt; numbers.length" style="rhombus;whiteSpace=wrap;html=1;" vertex="1" parent="WIyWlLk6GJQsqaUBKTNV-1">
          <mxGeometry x="168" y="332.5" width="204" height="95" as="geometry" />
        </mxCell>
        <mxCell id="jqhF-G6rzCCXoXhEArTD-95" value="" style="edgeStyle=orthogonalEdgeStyle;rounded=0;orthogonalLoop=1;jettySize=auto;html=1;" edge="1" parent="WIyWlLk6GJQsqaUBKTNV-1" source="jqhF-G6rzCCXoXhEArTD-89" target="jqhF-G6rzCCXoXhEArTD-81">
          <mxGeometry relative="1" as="geometry" />
        </mxCell>
        <mxCell id="jqhF-G6rzCCXoXhEArTD-100" value="" style="edgeStyle=orthogonalEdgeStyle;rounded=0;orthogonalLoop=1;jettySize=auto;html=1;" edge="1" parent="WIyWlLk6GJQsqaUBKTNV-1" source="jqhF-G6rzCCXoXhEArTD-89" target="jqhF-G6rzCCXoXhEArTD-99">
          <mxGeometry relative="1" as="geometry" />
        </mxCell>
        <mxCell id="jqhF-G6rzCCXoXhEArTD-89" value="numbers[index] &lt;b&gt;=&lt;/b&gt; maximum" style="rhombus;whiteSpace=wrap;html=1;" vertex="1" parent="WIyWlLk6GJQsqaUBKTNV-1">
          <mxGeometry x="168" y="585" width="204" height="95" as="geometry" />
        </mxCell>
        <mxCell id="jqhF-G6rzCCXoXhEArTD-98" value="&lt;b&gt;&lt;u&gt;&lt;font color=&quot;#cc0000&quot;&gt;Нет&lt;/font&gt;&lt;/u&gt;&lt;/b&gt;" style="text;html=1;align=center;verticalAlign=middle;resizable=0;points=[];autosize=1;strokeColor=none;fillColor=none;" vertex="1" parent="WIyWlLk6GJQsqaUBKTNV-1">
          <mxGeometry x="270" y="680" width="40" height="30" as="geometry" />
        </mxCell>
        <mxCell id="jqhF-G6rzCCXoXhEArTD-99" value="count_maximal =count_maximal + 1" style="rounded=0;whiteSpace=wrap;html=1;" vertex="1" parent="WIyWlLk6GJQsqaUBKTNV-1">
          <mxGeometry x="436" y="602.5" width="226" height="60" as="geometry" />
        </mxCell>
        <mxCell id="jqhF-G6rzCCXoXhEArTD-101" value="&lt;div style=&quot;text-align: justify;&quot;&gt;&lt;span style=&quot;background-color: initial;&quot;&gt;maximum = numbers[index]&lt;/span&gt;&lt;/div&gt;&lt;div style=&quot;text-align: justify;&quot;&gt;&lt;span style=&quot;background-color: initial;&quot;&gt;count_maximal = 1&lt;/span&gt;&lt;/div&gt;" style="rounded=0;whiteSpace=wrap;html=1;" vertex="1" parent="WIyWlLk6GJQsqaUBKTNV-1">
          <mxGeometry x="436" y="477.5" width="226" height="60" as="geometry" />
        </mxCell>
        <mxCell id="jqhF-G6rzCCXoXhEArTD-103" value="&lt;b&gt;&lt;u&gt;&lt;font color=&quot;#00cc00&quot;&gt;Да&lt;/font&gt;&lt;/u&gt;&lt;/b&gt;" style="text;html=1;align=center;verticalAlign=middle;resizable=0;points=[];autosize=1;strokeColor=none;fillColor=none;" vertex="1" parent="WIyWlLk6GJQsqaUBKTNV-1">
          <mxGeometry x="370" y="477.5" width="40" height="30" as="geometry" />
        </mxCell>
        <mxCell id="jqhF-G6rzCCXoXhEArTD-104" value="&lt;b&gt;&lt;u&gt;&lt;font color=&quot;#00cc00&quot;&gt;Да&lt;/font&gt;&lt;/u&gt;&lt;/b&gt;" style="text;html=1;align=center;verticalAlign=middle;resizable=0;points=[];autosize=1;strokeColor=none;fillColor=none;" vertex="1" parent="WIyWlLk6GJQsqaUBKTNV-1">
          <mxGeometry x="370" y="602.5" width="40" height="30" as="geometry" />
        </mxCell>
      </root>
    </mxGraphModel>
  </diagram>
</mxfile>
